<svg xmlns="http://www.w3.org/2000/svg" width="79" height="42" viewBox="0 0 79 42">
  <g id="logo_" transform="translate(-242 -86.159)" opacity="0.66">
    <path id="Path_2" data-name="Path 2" d="M21.565,3.294a18.607,18.607,0,0,0-7.123,1.4,18.23,18.23,0,0,0-5.8,3.81,17.335,17.335,0,0,0,0,24.995,18.23,18.23,0,0,0,5.8,3.81,18.834,18.834,0,0,0,14.246,0,18.23,18.23,0,0,0,5.8-3.81,17.335,17.335,0,0,0,0-24.995,18.229,18.229,0,0,0-5.8-3.81,18.607,18.607,0,0,0-7.123-1.4m0-3.294C33.475,0,43.13,9.4,43.13,21S33.475,42,21.565,42,0,32.6,0,21,9.655,0,21.565,0Z" transform="translate(242 86.159)" fill="#00a2ff"/>
    <path id="Path_1" data-name="Path 1" d="M12.428,29.821-.027,12.536,18.931-.041l2.292,3.42L5.836,13.586l7.394,10.262,9.293-7.587-6.157-3.635L18.5,9.086l11.218,6.623Z" transform="matrix(0.961, 0.276, -0.276, 0.961, 253.394, 89.561)" fill="#00a2ff"/>
    <path id="Path_3" data-name="Path 3" d="M11.264-14.522H7.035V-2.86H4.7V-14.522H.505v-1.9H11.264ZM17.5-10.871a5.6,5.6,0,0,0-.922-.075,2.076,2.076,0,0,0-2.1,1.192V-2.86H12.214V-12.939h2.161l.056,1.127A2.55,2.55,0,0,1,16.7-13.125a2.119,2.119,0,0,1,.8.13ZM21.333-2.86H19.07V-12.939h2.263Zm-2.4-12.7a1.2,1.2,0,0,1,.331-.866,1.249,1.249,0,0,1,.945-.345,1.265,1.265,0,0,1,.95.345,1.192,1.192,0,0,1,.335.866,1.165,1.165,0,0,1-.335.852,1.275,1.275,0,0,1-.95.34,1.259,1.259,0,0,1-.945-.34A1.173,1.173,0,0,1,18.93-15.556ZM32.623-7.8a6,6,0,0,1-1.062,3.731,3.4,3.4,0,0,1-2.85,1.393,3.424,3.424,0,0,1-2.655-1.09V1.015H23.792V-12.939h2.087l.093,1.025a3.325,3.325,0,0,1,2.711-1.211,3.436,3.436,0,0,1,2.892,1.374,6.161,6.161,0,0,1,1.048,3.814Zm-2.254-.2a4.2,4.2,0,0,0-.6-2.394,1.953,1.953,0,0,0-1.719-.885,2.083,2.083,0,0,0-1.993,1.146v4.471a2.1,2.1,0,0,0,2.012,1.174,1.951,1.951,0,0,0,1.691-.871A4.627,4.627,0,0,0,30.369-7.993Z" transform="translate(288.377 115.215)" fill="#00a2ff"/>
  </g>
</svg>
