<svg xmlns="http://www.w3.org/2000/svg" width="98.228" height="52" viewBox="0 0 98.228 52">
  <g id="logo" transform="translate(-242 -86.159)">
    <path id="Ellipse_1" data-name="Ellipse 1" d="M26,4a22.007,22.007,0,0,0-8.562,42.273A22.007,22.007,0,0,0,34.562,5.727,21.859,21.859,0,0,0,26,4m0-4A26,26,0,1,1,0,26,26,26,0,0,1,26,0Z" transform="translate(242 86.159)" fill="#00a2ff"/>
    <path id="Path_1" data-name="Path 1" d="M11.676,34.919-3.509,13.35,19.228-2.069l2.806,4.138L3.509,14.632l9.124,12.961,11.2-9.383-7.6-4.669,2.617-4.261,13.519,8.3Z" transform="matrix(0.961, 0.276, -0.276, 0.961, 258.62, 93.401)" fill="#00a2ff"/>
    <path id="Path_4" data-name="Path 4" d="M13.477-14.061h-5.1V0H5.559V-14.061H.505v-2.291H13.477Zm7.513,4.4a6.753,6.753,0,0,0-1.112-.09,2.5,2.5,0,0,0-2.527,1.438V0H14.622V-12.151h2.605l.067,1.359a3.075,3.075,0,0,1,2.74-1.583,2.555,2.555,0,0,1,.966.157ZM25.617,0H22.888V-12.151h2.729Zm-2.9-15.307a1.448,1.448,0,0,1,.4-1.044,1.506,1.506,0,0,1,1.14-.416,1.525,1.525,0,0,1,1.146.416,1.437,1.437,0,0,1,.4,1.044,1.4,1.4,0,0,1-.4,1.028,1.537,1.537,0,0,1-1.146.41,1.518,1.518,0,0,1-1.14-.41A1.415,1.415,0,0,1,22.719-15.307ZM39.228-5.952a7.235,7.235,0,0,1-1.28,4.5A4.1,4.1,0,0,1,34.511.225a4.128,4.128,0,0,1-3.2-1.314V4.672H28.582V-12.151H31.1l.112,1.235a4.008,4.008,0,0,1,3.268-1.46,4.142,4.142,0,0,1,3.487,1.656,7.428,7.428,0,0,1,1.263,4.6ZM36.51-6.188a5.068,5.068,0,0,0-.724-2.886,2.355,2.355,0,0,0-2.072-1.067,2.511,2.511,0,0,0-2.4,1.381v5.391a2.534,2.534,0,0,0,2.426,1.415A2.352,2.352,0,0,0,35.775-3,5.579,5.579,0,0,0,36.51-6.188Z" transform="translate(301 120.159)" fill="#00a2ff"/>
  </g>
</svg>
